# xmcd
#
# Track frame offsets:
# 150
# 13750
# 20728
# 30616
# 43003
# 55631
# 69709
# 83364
# 93412
# 103298
# 113025
# 127507
# 138474
# 150959
# 162964
# 176789
# 194666
# 207802
# 217517
# 229928
# 248015
# 260830
# 270835
#
# Disc length: 3804 seconds
#
#
# Revision: 0
# Processed by: cddbd v1.5.2PL0 Copyright (c) Steve Scherf et al.
# Submitted via: FreeRIP 2.95 
#
DISCID=2f0eda17
DTITLE=Rodrigão do Acordeon Vol. 03 - O melhor do Pé de Serra
DYEAR=1900
DGENRE=Forro
TTITLE0=Sala de Reboco
TTITLE1=A Todo Mundo do Psiu
TTITLE2=Xote das Meninas
TTITLE3=Asa Branca
TTITLE4=Paraíba Masculina
TTITLE5=Xodó
TTITLE6=Sanfoninha Choradeira
TTITLE7=Tropicana
TTITLE8=Petrolina Juazeiro
TTITLE9=Severina Xique Xique
TTITLE10=Por Isso Eu Vou na Casa Dela
TTITLE11=Sobradinho
TTITLE12=Jumento Nosso Irmão
TTITLE13=Vida de Viajante
TTITLE14=A diferença
TTITLE15=Feira de Mangaio
TTITLE16=Pau de Arara
TTITLE17=Mariana
TTITLE18=Panela Velha
TTITLE19=Morango do Nordeste
TTITLE20=Pisa na Fulô
TTITLE21=Milonga
TTITLE22=Brasileirinho
EXTD=
EXTT0=
EXTT1=
EXTT2=
EXTT3=
EXTT4=
EXTT5=
EXTT6=
EXTT7=
EXTT8=
EXTT9=
EXTT10=
EXTT11=
EXTT12=
EXTT13=
EXTT14=
EXTT15=
EXTT16=
EXTT17=
EXTT18=
EXTT19=
EXTT20=
EXTT21=
EXTT22=
PLAYORDER=
